<?xml version="1.0" encoding="utf-8"?>
<!-- Generator: Adobe Illustrator 15.1.0, SVG Export Plug-In  -->
<!DOCTYPE svg PUBLIC "-//W3C//DTD SVG 1.1//EN" "http://www.w3.org/Graphics/SVG/1.1/DTD/svg11.dtd" [
	<!ENTITY ns_flows "http://ns.adobe.com/Flows/1.0/">
]>
<svg version="1.1"
	 xmlns="http://www.w3.org/2000/svg" xmlns:xlink="http://www.w3.org/1999/xlink" xmlns:a="http://ns.adobe.com/AdobeSVGViewerExtensions/3.0/"
	 x="0px" y="0px" width="400px" height="89px" viewBox="0 0 400 89" enable-background="new 0 0 400 89" xml:space="preserve">
<defs>
</defs>
<g>
	<path fill="#0072A2" d="M88.162,52.713c2.9-4.956,4.593-10.69,4.593-16.828c0-18.43-14.994-33.416-33.417-33.416
		c-18.421,0-33.415,14.986-33.415,33.416c0,2.362,0.258,4.665,0.726,6.895l12.876,11.588L88.162,52.713z"/>
</g>
<path fill="#69AFA4" d="M52.106,10.839h0.196h0.45c0.516,0,0.955-0.296,1.188-0.72l0.019-0.012l2.476-4.425l0.017,0.017V5.651V5.533
	c0-0.19-0.154-0.345-0.35-0.345h-0.136l-8.408,4.623L47.55,9.794v0.022v0.143c0,0.191,0.154,0.351,0.353,0.351l4.221,0.511
	L52.106,10.839z"/>
<path fill="#69AFA4" d="M60.563,3.066h-0.085h-0.554c-0.548,0-1.01,0.326-1.23,0.78l-0.074,0.266l-5.351,17.99l0,0v0.006v0.639
	c0,0.76,0.611,1.376,1.367,1.376h0.425h0.11l-0.011-0.021l11.436-1.913l19.5,9.886l-0.007,0.012h0.019h0.629
	c0.756,0,1.366-0.623,1.366-1.38v-0.535L77.938,8.137c-0.302-0.197-0.614-0.369-0.923-0.56L60.544,3.083L60.563,3.066z"/>
<path fill="#69AFA4" d="M50.709,3.637c-9.855,2.641-17.93,9.662-21.968,18.864l0.688,7.573h-0.017l0.023,0.025l0.433,0.43
	c0.535,0.534,1.404,0.534,1.932,0l0.352-0.346l0.03-0.028h-0.013l8.611-9.719L50.709,3.637z"/>
<polygon fill="#163A4D" points="37.247,54.54 26.23,44.625 6.686,54.682 16.874,64.709 "/>
<path fill="#69AFA4" d="M41.9,42.957l-0.326-0.327l-0.055-0.056v0.014l-12.582-9.284l0.02-0.018h-0.038h-0.608
	c-0.671,0-1.201,0.5-1.317,1.134c-0.019,0.081-0.05,0.153-0.05,0.241v0.448l-0.467,6.654c0.061,0.364,0.16,0.722,0.239,1.082
	l11.954,10.761l3.502-9.118v-0.004C42.399,43.978,42.32,43.37,41.9,42.957z"/>
<path fill="#69AFA4" d="M50.794,38.792l9.387,4.899l4.203,9.823l9.966-0.34l9.946-15.447l-0.005-0.033
	c0.382-0.536,0.356-1.268-0.124-1.755l-0.333-0.331l-0.048-0.048v0.023l-15.961-8.579l-0.073-0.043c-0.32-0.124-0.677-0.124-0.997,0
	L66.7,26.99l-15.832,9.05v-0.025l-0.055,0.06l-0.399,0.396c-0.538,0.535-0.538,1.403,0,1.938L50.794,38.792z"/>
<polygon fill="#163A4D" points="38.139,86.664 38.139,86.664 37.887,56.614 37.895,56.614 37.887,56.055 27.326,61.322 27.46,78.09 
	38.139,86.787 "/>
<path fill="#27425A" d="M43.919,66.13l-3.754-9.989c-0.283,0.198-0.345,0.445-0.48,0.758l0.253,29.508
	c0.228,0.626,0.801,1.088,1.526,1.157l47.223-1.244c0.88-0.079,1.586-0.838,1.586-1.747v-1.028l-0.196-18.927L43.919,66.13z"/>
<polygon fill="#69AFA4" points="83.515,50.049 83.762,52.896 86.888,50.004 86.888,47.943 86.458,47.486 "/>
<path fill="#69AFA4" d="M86.482,47.468h0.081c0.184,0,0.326,0.147,0.326,0.327l-0.203-0.191L86.482,47.468z"/>
<polygon fill="#69AFA4" points="86.438,47.468 86.458,47.486 86.482,47.468 "/>
<path fill="#69AFA4" d="M86.563,47.468h-0.081l-0.024,0.019l0.43,0.457v-0.148C86.888,47.615,86.746,47.468,86.563,47.468z"/>
<polygon fill="#0072A2" points="128.005,38.641 122.873,38.641 122.873,58.264 122.873,59.105 122.873,63.396 138.954,63.396 
	138.954,58.264 128.005,58.264 "/>
<rect x="145.048" y="38.641" fill="#0072A2" width="5.133" height="24.755"/>
<polygon fill="#0072A2" points="174.721,55.175 161.376,38.686 161.344,38.712 161.344,38.641 156.207,38.641 156.207,63.396 
	161.344,63.396 161.344,46.811 174.721,63.341 174.721,63.396 174.766,63.396 174.823,63.467 174.91,63.396 179.859,63.396 
	179.859,38.641 174.721,38.641 "/>
<polygon fill="#0072A2" points="186.018,38.665 186.018,63.42 191.151,63.42 191.151,51.097 191.151,38.665 "/>
<polygon fill="#0072A2" points="207.828,38.712 201.243,38.712 191.151,51.097 194.527,55.172 201.25,63.484 207.828,63.484 
	197.821,51.096 "/>
<path fill="#0072A2" d="M276.619,53.422h7.361l-0.164,1.192c-0.24,1.786-1.108,3.237-2.565,4.31
	c-1.407,1.03-3.162,1.551-5.229,1.551c-2.477,0-4.467-0.854-5.919-2.54c-1.406-1.641-2.122-3.885-2.122-6.653
	c0-2.75,0.716-4.98,2.13-6.615c1.444-1.684,3.435-2.534,5.911-2.534c1.331,0,2.56,0.29,3.644,0.874
	c0.785,0.418,1.519,1.001,2.181,1.731l0.165,0.184l4.396-2.111l-0.278-0.323c-1.064-1.236-2.301-2.224-3.675-2.934
	c-1.844-0.944-4.005-1.425-6.432-1.425c-1.857,0-3.612,0.311-5.202,0.925c-1.591,0.621-3.017,1.526-4.237,2.719
	c-1.224,1.218-2.168,2.61-2.789,4.138c-0.621,1.527-0.938,3.236-0.938,5.082c0,1.755,0.322,3.458,0.969,5.062
	c0.635,1.599,1.546,2.995,2.707,4.168c1.196,1.211,2.583,2.131,4.123,2.727c1.546,0.596,3.354,0.905,5.367,0.905
	c4.125,0,7.21-1.142,9.438-3.465c2.213-2.313,3.336-5.646,3.336-9.923v-0.521h-12.178V53.422z"/>
<path fill="#0072A2" d="M314.583,41.91c-1.229-1.205-2.667-2.147-4.282-2.8c-3.225-1.313-6.927-1.301-10.127,0
	c-1.588,0.645-3.021,1.588-4.237,2.8c-1.272,1.223-2.242,2.623-2.881,4.156c-0.659,1.545-0.983,3.212-0.983,4.954
	c0,1.736,0.324,3.404,0.983,4.948c0.645,1.546,1.608,2.947,2.869,4.158c1.215,1.21,2.655,2.153,4.249,2.805
	c1.592,0.652,3.291,0.983,5.052,0.983c1.749,0,3.452-0.331,5.051-0.983c1.609-0.651,3.059-1.595,4.313-2.805
	c1.235-1.211,2.186-2.604,2.833-4.139c0.641-1.532,0.97-3.2,0.97-4.968c0-1.748-0.329-3.415-0.982-4.966
	C316.758,44.507,315.808,43.112,314.583,41.91z M311.003,57.306c-1.507,1.711-3.451,2.574-5.766,2.574
	c-2.351,0-4.301-0.863-5.797-2.555c-1.463-1.654-2.204-3.77-2.204-6.305c0-2.489,0.755-4.598,2.237-6.279
	c1.513-1.704,3.452-2.573,5.764-2.573c2.275,0,4.208,0.869,5.74,2.579c1.502,1.684,2.263,3.795,2.263,6.272
	C313.24,53.53,312.493,55.647,311.003,57.306z"/>
<path fill="#0072A2" d="M368.638,41.055c-1.185-0.824-2.586-1.42-4.145-1.774c-1.628-0.375-4.493-0.558-8.527-0.558h-4.492v24.491
	h5.707c3.357,0,5.861-0.184,7.421-0.546c1.513-0.35,2.869-0.938,4.036-1.755c1.546-1.077,2.686-2.42,3.482-4.1
	c0.801-1.686,1.206-3.649,1.206-5.822c0-2.181-0.405-4.144-1.206-5.824C371.323,43.488,370.184,42.145,368.638,41.055z
	 M365.741,57.331c-1.521,1.362-3.781,2.021-6.925,2.021h-2.269V42.569h2.269c3.098,0,5.431,0.69,6.932,2.053
	c1.525,1.386,2.307,3.529,2.307,6.369C368.055,53.827,367.273,55.965,365.741,57.331z"/>
<path fill="#0072A2" d="M392.392,52.916c-0.28-0.78-0.685-1.445-1.205-1.979c-0.777-0.805-2.628-1.613-5.346-2.349l-0.343-0.104
	c-1.534-0.404-2.541-0.834-3.155-1.341c-0.709-0.596-1.091-1.432-1.091-2.402c0-0.982,0.425-1.818,1.224-2.439
	c1.331-1.014,3.624-1.096,5.733-0.221c0.462,0.184,0.925,0.426,1.389,0.71l0.321,0.197l1.375-3.17l-0.259-0.14
	c-0.785-0.444-1.609-0.791-2.451-1.038c-1.205-0.367-2.51-0.55-3.866-0.55c-2.459,0-4.39,0.694-5.905,2.122
	c-1.495,1.406-2.223,3.192-2.223,5.454c0,1.692,0.436,2.973,1.323,3.904c0.944,0.982,2.644,1.813,5.044,2.459
	c2.141,0.576,3.401,1.102,4.079,1.71c0.532,0.463,1.161,1.329,1.161,2.82c0,1.107-0.455,2.065-1.313,2.781
	c-1.615,1.354-4.372,1.343-6.722-0.026c-0.722-0.412-1.451-0.968-2.181-1.647l-0.298-0.271l-2.109,3.482l0.224,0.179
	c1.05,0.875,2.132,1.546,3.224,1.997c1.393,0.576,2.96,0.867,4.657,0.867c2.844,0,5.03-0.748,6.696-2.293
	c1.643-1.521,2.439-3.491,2.439-6.031C392.815,54.601,392.677,53.701,392.392,52.916z"/>
<path fill="#0072A2" d="M334.966,37.664c-7.363,0-13.348,5.994-13.348,13.357c0,7.368,5.984,13.357,13.348,13.357
	c7.369,0,13.365-5.989,13.365-13.357C348.331,43.658,342.335,37.664,334.966,37.664z M339.627,41.262l-3.747-1.023
	C337.214,40.352,338.476,40.709,339.627,41.262z M344.002,56.974v-0.51v-0.058c0-0.064-0.05-0.12-0.119-0.12h-0.033h-0.012
	l0.006,0.014l-1.063,0.925l0.088,1.033l0.6-0.554c-1.982,2.516-5.053,4.139-8.502,4.139c-2.798,0-5.342-1.077-7.267-2.827
	l1.913-4.966l-0.016-0.053c0.052-0.159,0.047-0.33-0.078-0.46l-0.102-0.108l-0.019-0.018v0.011l-4.215-3.111l0.006-0.006h-0.011
	h-0.198c-0.226,0-0.403,0.173-0.442,0.382c-0.014,0.023-0.018,0.049-0.018,0.075v0.153l-0.163,2.242
	c-0.138-0.692-0.213-1.405-0.213-2.137c0-1.818,0.457-3.53,1.252-5.037l4.203-1.445c0.013-0.006,0.026-0.012,0.039-0.018
	c0.08-0.036,0.147-0.095,0.196-0.168l0.018-0.015l2.505-3.813c0.838-0.209,1.709-0.332,2.608-0.332c0.174,0,0.341,0.018,0.513,0.026
	c-0.149,0.024-0.281,0.109-0.348,0.246l-0.024,0.083l-1.786,6.02v0.209c0,0.259,0.209,0.462,0.456,0.462h0.146h0.037l-0.006-0.006
	l3.821-0.64l6.526,3.307h0.208c0.26,0,0.463-0.204,0.463-0.455v-0.178l-2.986-6.476c2.327,1.987,3.811,4.938,3.811,8.23
	C345.796,53.22,345.133,55.266,344.002,56.974z"/>
<path fill="#0072A2" d="M343.546,51.083l-0.02-0.017v0.013l-5.334-2.877l-0.027-0.014c-0.106-0.038-0.226-0.038-0.333,0l-0.02,0.006
	l-5.292,3.028v-0.006l-0.024,0.02l-0.132,0.134c-0.173,0.184-0.173,0.468,0,0.653l0.126,0.126l3.143,1.635l2.71,6.329l5.356-8.317
	v-0.014c0.126-0.177,0.119-0.424-0.039-0.591L343.546,51.083z"/>
<path fill="#0072A2" d="M332.933,42.805h0.063h0.153c0.172,0,0.322-0.104,0.4-0.242l0.006-0.006l0.83-1.484l0.006,0.013v-0.021
	v-0.038c0-0.067-0.057-0.119-0.114-0.119h-0.051l-2.813,1.544v0.054c0,0.062,0.044,0.113,0.113,0.113l1.412,0.171L332.933,42.805z"
	/>
<g>
	<polygon fill="#163A4D" points="91.892,62.966 88.347,54.375 41.858,55.938 45.063,64.484 	"/>
</g>
<g>
	<path fill="#27425A" d="M93.462,43.781c-0.788,3.337-2.049,6.573-3.791,9.583l0.154,0.384l0.271,0.657l20.12,5.023L93.462,43.781z"
		/>
</g>
<polygon fill="#69AFA4" points="236.068,38.641 235.984,38.641 230.935,38.641 230.852,38.641 230.875,38.853 225.741,56.693 
	220.548,38.723 220.556,38.641 220.524,38.641 215.424,38.641 215.392,38.641 215.416,38.71 212.858,63.396 217.99,63.396 
	219.35,50.275 223.813,63.396 227.678,63.396 232.074,50.426 233.419,63.396 238.55,63.396 236.006,38.828 "/>
<polygon fill="#69AFA4" points="262.354,38.667 255.771,38.667 250.914,46.972 246.034,38.667 239.452,38.667 248.346,51.445 
	248.346,63.377 253.479,63.377 253.479,51.439 "/>
<rect id="_x3C_切片_x3E__1_" fill="none" width="400" height="89"/>
</svg>
